<svg width="104" height="104" viewBox="0 0 104 104" fill="none" xmlns="http://www.w3.org/2000/svg">
<path d="M52.3749 62.5006C49.4907 62.5006 46.7246 61.3549 44.6852 59.3154C42.6457 57.2759 41.4999 54.5098 41.4999 51.6256C41.4999 47.2194 44.0312 43.2687 47.9504 41.5629C48.0885 41.5027 48.2416 41.4855 48.3896 41.5136C48.5377 41.5416 48.6738 41.6136 48.7804 41.7202C48.8869 41.8267 48.9589 41.9629 48.987 42.1109C49.015 42.259 48.9978 42.412 48.9376 42.5501C48.4876 43.5833 48.2499 44.9065 48.2499 46.3756C48.2499 51.545 52.4556 55.7506 57.6249 55.7506C59.094 55.7506 60.4173 55.513 61.4504 55.063C61.5885 55.0028 61.7416 54.9856 61.8896 55.0136C62.0377 55.0416 62.1738 55.1136 62.2804 55.2202C62.3869 55.3267 62.4589 55.4629 62.487 55.6109C62.515 55.759 62.4978 55.912 62.4376 56.0501C60.7318 59.9694 56.7812 62.5006 52.3749 62.5006Z" fill="white"/>
</svg>
