<svg width="102" height="102" viewBox="0 0 102 102" fill="none" xmlns="http://www.w3.org/2000/svg">
<path d="M50.7812 44.3125C50.5077 44.3125 50.2454 44.2039 50.052 44.0105C49.8586 43.8171 49.75 43.5548 49.75 43.2812V41.0312C49.75 40.7577 49.8586 40.4954 50.052 40.302C50.2454 40.1086 50.5077 40 50.7812 40C51.0548 40 51.3171 40.1086 51.5105 40.302C51.7039 40.4954 51.8125 40.7577 51.8125 41.0312V43.2812C51.8125 43.5548 51.7039 43.8171 51.5105 44.0105C51.3171 44.2039 51.0548 44.3125 50.7812 44.3125ZM50.7812 61.5625C50.5077 61.5625 50.2454 61.4538 50.052 61.2605C49.8586 61.0671 49.75 60.8048 49.75 60.5312V58.2812C49.75 58.0077 49.8586 57.7454 50.052 57.552C50.2454 57.3587 50.5077 57.25 50.7812 57.25C51.0548 57.25 51.3171 57.3587 51.5105 57.552C51.7039 57.7454 51.8125 58.0077 51.8125 58.2812V60.5312C51.8125 60.8048 51.7039 61.0671 51.5105 61.2605C51.3171 61.4538 51.0548 61.5625 50.7812 61.5625ZM56.0847 46.5091C55.8808 46.509 55.6814 46.4486 55.5119 46.3353C55.3423 46.222 55.2102 46.061 55.1321 45.8726C55.0541 45.6842 55.0336 45.4769 55.0733 45.2769C55.1131 45.0769 55.2112 44.8932 55.3553 44.7489L56.9462 43.158C57.1405 42.9688 57.4014 42.8637 57.6726 42.8655C57.9437 42.8673 58.2033 42.9758 58.395 43.1675C58.5867 43.3592 58.6952 43.6188 58.697 43.8899C58.6988 44.1611 58.5937 44.422 58.4045 44.6163L56.8136 46.2072C56.718 46.303 56.6043 46.379 56.4793 46.4308C56.3542 46.4826 56.2201 46.5092 56.0847 46.5091ZM43.8869 58.7069C43.6829 58.7068 43.4835 58.6463 43.3139 58.533C43.1444 58.4196 43.0122 58.2586 42.9342 58.0701C42.8562 57.8816 42.8358 57.6743 42.8756 57.4742C42.9154 57.2742 43.0137 57.0904 43.158 56.9462L44.7489 55.3553C44.8442 55.2575 44.958 55.1795 45.0836 55.126C45.2093 55.0725 45.3443 55.0445 45.4809 55.0436C45.6174 55.0427 45.7528 55.069 45.8792 55.1208C46.0055 55.1727 46.1203 55.2491 46.2169 55.3456C46.3134 55.4422 46.3898 55.557 46.4417 55.6833C46.4935 55.8097 46.5198 55.9451 46.5189 56.0816C46.518 56.2182 46.49 56.3532 46.4365 56.4789C46.383 56.6045 46.305 56.7183 46.2072 56.8136L44.6163 58.4045C44.5206 58.5005 44.4069 58.5766 44.2817 58.6285C44.1566 58.6804 44.0224 58.707 43.8869 58.7069ZM60.5312 51.8125H58.2812C58.0077 51.8125 57.7454 51.7039 57.552 51.5105C57.3587 51.3171 57.25 51.0548 57.25 50.7812C57.25 50.5077 57.3587 50.2454 57.552 50.052C57.7454 49.8586 58.0077 49.75 58.2812 49.75H60.5312C60.8048 49.75 61.0671 49.8586 61.2605 50.052C61.4538 50.2454 61.5625 50.5077 61.5625 50.7812C61.5625 51.0548 61.4538 51.3171 61.2605 51.5105C61.0671 51.7039 60.8048 51.8125 60.5312 51.8125ZM43.2812 51.8125H41.0312C40.7577 51.8125 40.4954 51.7039 40.302 51.5105C40.1086 51.3171 40 51.0548 40 50.7812C40 50.5077 40.1086 50.2454 40.302 50.052C40.4954 49.8586 40.7577 49.75 41.0312 49.75H43.2812C43.5548 49.75 43.8171 49.8586 44.0105 50.052C44.2039 50.2454 44.3125 50.5077 44.3125 50.7812C44.3125 51.0548 44.2039 51.3171 44.0105 51.5105C43.8171 51.7039 43.5548 51.8125 43.2812 51.8125ZM57.6756 58.7069C57.5401 58.707 57.4059 58.6804 57.2808 58.6285C57.1556 58.5766 57.0419 58.5005 56.9462 58.4045L55.3553 56.8136C55.1661 56.6194 55.061 56.3584 55.0628 56.0873C55.0646 55.8161 55.1731 55.5566 55.3649 55.3649C55.5566 55.1731 55.8161 55.0646 56.0873 55.0628C56.3584 55.061 56.6194 55.1661 56.8136 55.3553L58.4045 56.9462C58.5488 57.0904 58.6471 57.2742 58.6869 57.4742C58.7267 57.6743 58.7063 57.8816 58.6283 58.0701C58.5503 58.2586 58.4181 58.4196 58.2486 58.533C58.079 58.6463 57.8796 58.7068 57.6756 58.7069ZM45.4778 46.5091C45.3424 46.5093 45.2083 46.4828 45.0832 46.431C44.9581 46.3792 44.8445 46.3031 44.7489 46.2072L43.158 44.6163C42.9688 44.422 42.8637 44.1611 42.8655 43.8899C42.8673 43.6188 42.9758 43.3592 43.1675 43.1675C43.3592 42.9758 43.6188 42.8673 43.8899 42.8655C44.1611 42.8637 44.422 42.9688 44.6163 43.158L46.2072 44.7489C46.3513 44.8932 46.4494 45.0769 46.4892 45.2769C46.5289 45.4769 46.5084 45.6842 46.4304 45.8726C46.3523 46.061 46.2202 46.222 46.0506 46.3353C45.8811 46.4486 45.6817 46.509 45.4778 46.5091ZM50.7812 55.5625C49.8356 55.5625 48.9112 55.2821 48.1249 54.7567C47.3387 54.2313 46.7258 53.4846 46.364 52.611C46.0021 51.7373 45.9074 50.7759 46.0919 49.8485C46.2764 48.921 46.7317 48.0691 47.4004 47.4004C48.0691 46.7317 48.921 46.2764 49.8485 46.0919C50.7759 45.9074 51.7373 46.0021 52.611 46.364C53.4846 46.7258 54.2313 47.3387 54.7567 48.1249C55.2821 48.9112 55.5625 49.8356 55.5625 50.7812C55.561 52.0489 55.0568 53.2641 54.1605 54.1605C53.2641 55.0568 52.0489 55.561 50.7812 55.5625Z" fill="white"/>
</svg>
